<?xml version="1.0"?>
<svg xmlns="http://www.w3.org/2000/svg" xmlns:xlink="http://www.w3.org/1999/xlink" version="1.1" viewBox="0 0 224 224" width="48px" height="48px"><g fill="none" fill-rule="nonzero" stroke="none" stroke-width="1" stroke-linecap="butt" stroke-linejoin="miter" stroke-miterlimit="10" stroke-dasharray="" stroke-dashoffset="0" font-family="none" font-weight="none" font-size="none" text-anchor="none" style="mix-blend-mode: normal"><path d="M0,224v-224h224v224z" fill="none"/><g fill="#42415c"><path d="M112,19.6c-50.99795,0 -92.4,41.40205 -92.4,92.4c0,50.99795 41.40205,92.4 92.4,92.4c50.99795,0 92.4,-41.40205 92.4,-92.4c0,-50.99795 -41.40205,-92.4 -92.4,-92.4zM112,25.2c47.97148,0 86.8,38.82852 86.8,86.8c0,47.97148 -38.82852,86.8 -86.8,86.8c-47.97148,0 -86.8,-38.82852 -86.8,-86.8c0,-47.97148 38.82852,-86.8 86.8,-86.8zM112,33.6c-1.5464,0 -2.8,1.2536 -2.8,2.8c0,1.5464 1.2536,2.8 2.8,2.8c1.5464,0 2.8,-1.2536 2.8,-2.8c0,-1.5464 -1.2536,-2.8 -2.8,-2.8zM97.25078,35.05469c-1.5464,0 -2.8,1.2536 -2.8,2.8c0,1.5464 1.2536,2.8 2.8,2.8c1.5464,0 2.8,-1.2536 2.8,-2.8c0,-1.5464 -1.2536,-2.8 -2.8,-2.8zM126.74922,35.05469c-1.5464,0 -2.8,1.2536 -2.8,2.8c0,1.5464 1.2536,2.8 2.8,2.8c1.5464,0 2.8,-1.2536 2.8,-2.8c0,-1.5464 -1.2536,-2.8 -2.8,-2.8zM83.07031,39.35313c-1.5464,0 -2.8,1.2536 -2.8,2.8c0,1.5464 1.2536,2.8 2.8,2.8c1.5464,0 2.8,-1.2536 2.8,-2.8c0,-1.5464 -1.2536,-2.8 -2.8,-2.8zM140.92969,39.35313c-1.5464,0 -2.8,1.2536 -2.8,2.8c0,1.5464 1.2536,2.8 2.8,2.8c1.5464,0 2.8,-1.2536 2.8,-2.8c0,-1.5464 -1.2536,-2.8 -2.8,-2.8zM70,46.34219c-1.5464,0 -2.8,1.2536 -2.8,2.8c0,1.5464 1.2536,2.8 2.8,2.8c1.5464,0 2.8,-1.2536 2.8,-2.8c0,-1.5464 -1.2536,-2.8 -2.8,-2.8zM154,46.34219c-1.5464,0 -2.8,1.2536 -2.8,2.8c0,1.5464 1.2536,2.8 2.8,2.8c1.5464,0 2.8,-1.2536 2.8,-2.8c0,-1.5464 -1.2536,-2.8 -2.8,-2.8zM58.54297,55.74297c-1.5464,0 -2.8,1.2536 -2.8,2.8c0,1.5464 1.2536,2.8 2.8,2.8c1.5464,0 2.8,-1.2536 2.8,-2.8c0,-1.5464 -1.2536,-2.8 -2.8,-2.8zM165.45703,55.74297c-1.5464,0 -2.8,1.2536 -2.8,2.8c0,1.5464 1.2536,2.8 2.8,2.8c1.5464,0 2.8,-1.2536 2.8,-2.8c0,-1.5464 -1.2536,-2.8 -2.8,-2.8zM117.19531,56.02734c-1.07802,-0.07503 -2.18655,0.15538 -3.17734,0.73281l-4.83984,2.82734h-0.00547c-2.63892,1.54352 -3.55235,5.01414 -2.0125,7.65625l35.99531,61.70938c-0.66252,2.70975 -0.34955,5.6602 1.14297,8.24687c1.94657,3.36991 4.89561,4.37327 7.60156,7.44844c2.59624,2.94991 5.06953,6.33281 5.06953,6.33281l2.26953,3.11719l2.25859,-3.12812c0,0 2.44311,-3.35799 3.94297,-8.08281c1.49985,-4.72482 2.12974,-11.26082 -1.85938,-17.07344c-1.36061,-1.98356 -3.25348,-3.51378 -5.38125,-4.41875l-36.52578,-62.61719v-0.00547c-0.77189,-1.31933 -2.02687,-2.20433 -3.41797,-2.57031c-0.34778,-0.0915 -0.7016,-0.14999 -1.06094,-0.175zM116.83437,61.6h0.00547l27.35469,46.88906l-4.83984,2.82187l-27.35469,-46.88906zM49.14219,67.2c-1.5464,0 -2.8,1.2536 -2.8,2.8c0,1.5464 1.2536,2.8 2.8,2.8c1.5464,0 2.8,-1.2536 2.8,-2.8c0,-1.5464 -1.2536,-2.8 -2.8,-2.8zM174.85781,67.2c-1.5464,0 -2.8,1.2536 -2.8,2.8c0,1.5464 1.2536,2.8 2.8,2.8c1.5464,0 2.8,-1.2536 2.8,-2.8c0,-1.5464 -1.2536,-2.8 -2.8,-2.8zM100.43906,73.5c-0.35934,0.0245 -0.71316,0.0835 -1.06094,0.175c-1.3911,0.36598 -2.64621,1.25632 -3.41797,2.57578l-0.00547,0.01094l-31.93203,56.00547l-2.80547,20.17422l16.99141,-11.69766l0.31719,-0.54688l31.94844,-55.48047c1.53985,-2.64211 0.62642,-6.11273 -2.0125,-7.65625l-4.84531,-2.82187c-0.99079,-0.57744 -2.09933,-0.81178 -3.17734,-0.73828zM100.8,79.07266l4.83437,2.82188v0.00547v0.00547l-2.975,5.16797l-4.81797,-2.81094zM42.15313,80.27031c-1.5464,0 -2.8,1.2536 -2.8,2.8c0,1.5464 1.2536,2.8 2.8,2.8c1.5464,0 2.8,-1.2536 2.8,-2.8c0,-1.5464 -1.2536,-2.8 -2.8,-2.8zM181.84687,80.27031c-1.5464,0 -2.8,1.2536 -2.8,2.8c0,1.5464 1.2536,2.8 2.8,2.8c1.5464,0 2.8,-1.2536 2.8,-2.8c0,-1.5464 -1.2536,-2.8 -2.8,-2.8zM95.06875,89.12969l4.79609,2.79453l-25.88359,44.93672l-5.46328,3.75703l0.90781,-6.51328zM37.85469,94.45078c-1.5464,0 -2.8,1.2536 -2.8,2.8c0,1.5464 1.2536,2.8 2.8,2.8c1.5464,0 2.8,-1.2536 2.8,-2.8c0,-1.5464 -1.2536,-2.8 -2.8,-2.8zM186.14531,94.45078c-1.5464,0 -2.8,1.2536 -2.8,2.8c0,1.5464 1.2536,2.8 2.8,2.8c1.5464,0 2.8,-1.2536 2.8,-2.8c0,-1.5464 -1.2536,-2.8 -2.8,-2.8zM53.2,100.8v19.6h11.14531l3.19375,-5.6h-8.73906v-8.4h13.52422l3.19375,-5.6zM107.67422,100.8l-3.22656,5.6h19.06953l-3.26484,-5.6zM152.66016,100.8l3.26484,5.6h12.075v8.4h-7.175l3.26484,5.6h9.51016v-19.6zM36.4,109.2c-1.5464,0 -2.8,1.2536 -2.8,2.8c0,1.5464 1.2536,2.8 2.8,2.8c1.5464,0 2.8,-1.2536 2.8,-2.8c0,-1.5464 -1.2536,-2.8 -2.8,-2.8zM187.6,109.2c-1.5464,0 -2.8,1.2536 -2.8,2.8c0,1.5464 1.2536,2.8 2.8,2.8c1.5464,0 2.8,-1.2536 2.8,-2.8c0,-1.5464 -1.2536,-2.8 -2.8,-2.8zM147.01094,113.32891l4.35313,7.45938c-1.00751,0.23029 -2.00825,0.55865 -2.96406,1.11016c-0.73903,0.42642 -1.39485,0.93938 -1.99609,1.49844l-4.22734,-7.24609zM99.61328,114.8l-3.22656,5.6h35.30078l-3.27031,-5.6zM37.85469,123.94922c-1.5464,0 -2.8,1.2536 -2.8,2.8c0,1.5464 1.2536,2.8 2.8,2.8c1.5464,0 2.8,-1.2536 2.8,-2.8c0,-1.5464 -1.2536,-2.8 -2.8,-2.8zM186.14531,123.94922c-1.5464,0 -2.8,1.2536 -2.8,2.8c0,1.5464 1.2536,2.8 2.8,2.8c1.5464,0 2.8,-1.2536 2.8,-2.8c0,-1.5464 -1.2536,-2.8 -2.8,-2.8zM154.33906,126.03281c0.35005,0.03165 0.69809,0.10144 1.03906,0.20234c1.36387,0.40363 2.62838,1.35253 3.5875,2.75078c2.73648,3.98738 2.34104,8.41487 1.1375,12.20625c-0.54859,1.72814 -0.83143,1.84023 -1.43281,2.96406c-0.97804,-1.25553 -1.22235,-1.6731 -2.57031,-3.20469c-3.40925,-3.87443 -6.43895,-5.66548 -6.95078,-6.55156c-1.56251,-2.70798 -0.6556,-6.08919 2.05078,-7.65078c1.01356,-0.58482 2.08891,-0.81134 3.13906,-0.71641zM42.15313,138.12969c-1.5464,0 -2.8,1.2536 -2.8,2.8c0,1.5464 1.2536,2.8 2.8,2.8c1.5464,0 2.8,-1.2536 2.8,-2.8c0,-1.5464 -1.2536,-2.8 -2.8,-2.8zM181.84687,138.12969c-1.5464,0 -2.8,1.2536 -2.8,2.8c0,1.5464 1.2536,2.8 2.8,2.8c1.5464,0 2.8,-1.2536 2.8,-2.8c0,-1.5464 -1.2536,-2.8 -2.8,-2.8zM49.14219,151.2c-1.5464,0 -2.8,1.2536 -2.8,2.8c0,1.5464 1.2536,2.8 2.8,2.8c1.5464,0 2.8,-1.2536 2.8,-2.8c0,-1.5464 -1.2536,-2.8 -2.8,-2.8zM174.85781,151.2c-1.5464,0 -2.8,1.2536 -2.8,2.8c0,1.5464 1.2536,2.8 2.8,2.8c1.5464,0 2.8,-1.2536 2.8,-2.8c0,-1.5464 -1.2536,-2.8 -2.8,-2.8zM58.54297,162.65703c-1.5464,0 -2.8,1.2536 -2.8,2.8c0,1.5464 1.2536,2.8 2.8,2.8c1.5464,0 2.8,-1.2536 2.8,-2.8c0,-1.5464 -1.2536,-2.8 -2.8,-2.8zM165.45703,162.65703c-1.5464,0 -2.8,1.2536 -2.8,2.8c0,1.5464 1.2536,2.8 2.8,2.8c1.5464,0 2.8,-1.2536 2.8,-2.8c0,-1.5464 -1.2536,-2.8 -2.8,-2.8zM70,172.05781c-1.5464,0 -2.8,1.2536 -2.8,2.8c0,1.5464 1.2536,2.8 2.8,2.8c1.5464,0 2.8,-1.2536 2.8,-2.8c0,-1.5464 -1.2536,-2.8 -2.8,-2.8zM154,172.05781c-1.5464,0 -2.8,1.2536 -2.8,2.8c0,1.5464 1.2536,2.8 2.8,2.8c1.5464,0 2.8,-1.2536 2.8,-2.8c0,-1.5464 -1.2536,-2.8 -2.8,-2.8zM83.07031,179.04687c-1.5464,0 -2.8,1.2536 -2.8,2.8c0,1.5464 1.2536,2.8 2.8,2.8c1.5464,0 2.8,-1.2536 2.8,-2.8c0,-1.5464 -1.2536,-2.8 -2.8,-2.8zM140.92969,179.04687c-1.5464,0 -2.8,1.2536 -2.8,2.8c0,1.5464 1.2536,2.8 2.8,2.8c1.5464,0 2.8,-1.2536 2.8,-2.8c0,-1.5464 -1.2536,-2.8 -2.8,-2.8zM97.25078,183.34531c-1.5464,0 -2.8,1.2536 -2.8,2.8c0,1.5464 1.2536,2.8 2.8,2.8c1.5464,0 2.8,-1.2536 2.8,-2.8c0,-1.5464 -1.2536,-2.8 -2.8,-2.8zM126.74922,183.34531c-1.5464,0 -2.8,1.2536 -2.8,2.8c0,1.5464 1.2536,2.8 2.8,2.8c1.5464,0 2.8,-1.2536 2.8,-2.8c0,-1.5464 -1.2536,-2.8 -2.8,-2.8zM112,184.8c-1.5464,0 -2.8,1.2536 -2.8,2.8c0,1.5464 1.2536,2.8 2.8,2.8c1.5464,0 2.8,-1.2536 2.8,-2.8c0,-1.5464 -1.2536,-2.8 -2.8,-2.8z"/></g></g></svg>
